<?xml version="1.0" encoding="UTF-8"?><svg xmlns="http://www.w3.org/2000/svg" xmlns:xlink="http://www.w3.org/1999/xlink" fill-opacity="1" color-rendering="auto" color-interpolation="auto" text-rendering="auto" stroke="black" stroke-linecap="square" width="630" stroke-miterlimit="10" shape-rendering="auto" stroke-opacity="1" fill="black" stroke-dasharray="none" font-weight="normal" stroke-width="1" height="312" font-family="'Dialog'" font-style="normal" stroke-linejoin="miter" font-size="12px" stroke-dashoffset="0" image-rendering="auto">
  <!--Generated by ySVG 2.5-->
  <defs id="genericDefs"/>
  <g>
    <defs id="defs1">
      <clipPath clipPathUnits="userSpaceOnUse" id="clipPath1">
        <path d="M0 0 L630 0 L630 312 L0 312 L0 0 Z"/>
      </clipPath>
      <clipPath clipPathUnits="userSpaceOnUse" id="clipPath2">
        <path d="M315 181 L945 181 L945 493 L315 493 L315 181 Z"/>
      </clipPath>
    </defs>
    <g fill="white" text-rendering="geometricPrecision" shape-rendering="geometricPrecision" transform="translate(-315,-181)" stroke="white">
      <rect x="315" width="630" height="312" y="181" clip-path="url(#clipPath2)" stroke="none"/>
    </g>
    <g fill="rgb(216,216,255)" text-rendering="geometricPrecision" shape-rendering="geometricPrecision" transform="matrix(1,0,0,1,-315,-181)" stroke="rgb(216,216,255)">
      <rect x="790.142" width="80" height="100" y="369.5" clip-path="url(#clipPath2)" stroke="none"/>
    </g>
    <g text-rendering="geometricPrecision" stroke-miterlimit="1.45" shape-rendering="geometricPrecision" font-family="sans-serif" transform="matrix(1,0,0,1,-315,-181)" stroke-linecap="butt">
      <text x="802.4594" xml:space="preserve" y="460.8633" clip-path="url(#clipPath2)" stroke="none">Machine 4</text>
      <rect x="790.142" y="369.5" clip-path="url(#clipPath2)" fill="none" width="80" stroke-dasharray="6,2" height="100"/>
    </g>
    <g fill="rgb(216,216,255)" text-rendering="geometricPrecision" shape-rendering="geometricPrecision" transform="matrix(1,0,0,1,-315,-181)" stroke="rgb(216,216,255)">
      <rect x="690.142" width="80" height="100" y="369.5" clip-path="url(#clipPath2)" stroke="none"/>
    </g>
    <g text-rendering="geometricPrecision" stroke-miterlimit="1.45" shape-rendering="geometricPrecision" font-family="sans-serif" transform="matrix(1,0,0,1,-315,-181)" stroke-linecap="butt">
      <text x="702.4594" xml:space="preserve" y="460.8633" clip-path="url(#clipPath2)" stroke="none">Machine 3</text>
      <rect x="690.142" y="369.5" clip-path="url(#clipPath2)" fill="none" width="80" stroke-dasharray="6,2" height="100"/>
    </g>
    <g fill="rgb(216,216,255)" text-rendering="geometricPrecision" shape-rendering="geometricPrecision" transform="matrix(1,0,0,1,-315,-181)" stroke="rgb(216,216,255)">
      <rect x="790.142" width="80" height="100" y="249.5" clip-path="url(#clipPath2)" stroke="none"/>
    </g>
    <g text-rendering="geometricPrecision" stroke-miterlimit="1.45" shape-rendering="geometricPrecision" font-family="sans-serif" transform="matrix(1,0,0,1,-315,-181)" stroke-linecap="butt">
      <text x="802.4594" xml:space="preserve" y="340.8633" clip-path="url(#clipPath2)" stroke="none">Machine 2</text>
      <rect x="790.142" y="249.5" clip-path="url(#clipPath2)" fill="none" width="80" stroke-dasharray="6,2" height="100"/>
    </g>
    <g fill="rgb(216,216,255)" text-rendering="geometricPrecision" shape-rendering="geometricPrecision" transform="matrix(1,0,0,1,-315,-181)" stroke="rgb(216,216,255)">
      <rect x="690.142" width="80" height="100" y="249.5" clip-path="url(#clipPath2)" stroke="none"/>
    </g>
    <g text-rendering="geometricPrecision" stroke-miterlimit="1.45" shape-rendering="geometricPrecision" font-family="sans-serif" transform="matrix(1,0,0,1,-315,-181)" stroke-linecap="butt">
      <text x="702.4594" xml:space="preserve" y="340.8633" clip-path="url(#clipPath2)" stroke="none">Machine 1</text>
      <rect x="690.142" y="249.5" clip-path="url(#clipPath2)" fill="none" width="80" stroke-dasharray="6,2" height="100"/>
    </g>
    <g fill="rgb(216,216,255)" text-rendering="geometricPrecision" shape-rendering="geometricPrecision" transform="matrix(1,0,0,1,-315,-181)" stroke="rgb(216,216,255)">
      <rect x="380" width="135" height="42.16" y="385.92" clip-path="url(#clipPath2)" stroke="none"/>
    </g>
    <g text-rendering="geometricPrecision" stroke-miterlimit="1.45" shape-rendering="geometricPrecision" font-family="sans-serif" transform="matrix(1,0,0,1,-315,-181)" stroke-linecap="butt">
      <text x="386" xml:space="preserve" y="403.9845" clip-path="url(#clipPath2)" stroke="none">Machine 1</text>
      <rect x="380" y="385.92" clip-path="url(#clipPath2)" fill="none" width="135" stroke-dasharray="6,2" height="42.16"/>
    </g>
    <g fill="rgb(216,216,255)" text-rendering="geometricPrecision" shape-rendering="geometricPrecision" transform="matrix(1,0,0,1,-315,-181)" stroke="rgb(216,216,255)">
      <rect x="481.5" width="135" height="42.16" y="335.92" clip-path="url(#clipPath2)" stroke="none"/>
    </g>
    <g text-rendering="geometricPrecision" stroke-miterlimit="1.45" shape-rendering="geometricPrecision" font-family="sans-serif" transform="matrix(1,0,0,1,-315,-181)" stroke-linecap="butt">
      <text x="555.1348" xml:space="preserve" y="353.9845" clip-path="url(#clipPath2)" stroke="none">Machine 3</text>
      <rect x="481.5" y="335.92" clip-path="url(#clipPath2)" fill="none" width="135" stroke-dasharray="6,2" height="42.16"/>
    </g>
    <g fill="rgb(216,216,255)" text-rendering="geometricPrecision" shape-rendering="geometricPrecision" transform="matrix(1,0,0,1,-315,-181)" stroke="rgb(216,216,255)">
      <rect x="343" width="135" height="42.16" y="335.92" clip-path="url(#clipPath2)" stroke="none"/>
    </g>
    <g text-rendering="geometricPrecision" stroke-miterlimit="1.45" shape-rendering="geometricPrecision" font-family="sans-serif" transform="matrix(1,0,0,1,-315,-181)" stroke-linecap="butt">
      <text x="349" xml:space="preserve" y="353.9845" clip-path="url(#clipPath2)" stroke="none">Machine 2</text>
      <rect x="343" y="335.92" clip-path="url(#clipPath2)" fill="none" width="135" stroke-dasharray="6,2" height="42.16"/>
    </g>
    <g fill="rgb(216,216,255)" text-rendering="geometricPrecision" shape-rendering="geometricPrecision" transform="matrix(1,0,0,1,-315,-181)" stroke="rgb(216,216,255)">
      <rect x="380" width="135" height="42.16" y="285.92" clip-path="url(#clipPath2)" stroke="none"/>
    </g>
    <g text-rendering="geometricPrecision" stroke-miterlimit="1.45" shape-rendering="geometricPrecision" font-family="sans-serif" transform="matrix(1,0,0,1,-315,-181)" stroke-linecap="butt">
      <text x="386" xml:space="preserve" y="303.9845" clip-path="url(#clipPath2)" stroke="none">Machine 4</text>
      <rect x="380" y="285.92" clip-path="url(#clipPath2)" fill="none" width="135" stroke-dasharray="6,2" height="42.16"/>
    </g>
    <g fill="rgb(255,153,51)" text-rendering="geometricPrecision" shape-rendering="geometricPrecision" transform="matrix(1,0,0,1,-315,-181)" stroke="rgb(255,153,51)">
      <rect x="415.06" y="347" clip-path="url(#clipPath2)" width="60" rx="4" ry="4" height="20" stroke="none"/>
    </g>
    <g text-rendering="geometricPrecision" stroke-miterlimit="1.45" shape-rendering="geometricPrecision" transform="matrix(1,0,0,1,-315,-181)" stroke-linecap="butt">
      <rect x="415.06" y="347" clip-path="url(#clipPath2)" fill="none" width="60" rx="4" ry="4" height="20"/>
    </g>
    <g fill="rgb(255,153,51)" text-rendering="geometricPrecision" shape-rendering="geometricPrecision" transform="matrix(1,0,0,1,-315,-181)" stroke="rgb(255,153,51)">
      <rect x="450" y="397" clip-path="url(#clipPath2)" width="60" rx="4" ry="4" height="20" stroke="none"/>
    </g>
    <g text-rendering="geometricPrecision" stroke-miterlimit="1.45" shape-rendering="geometricPrecision" transform="matrix(1,0,0,1,-315,-181)" stroke-linecap="butt">
      <rect x="450" y="397" clip-path="url(#clipPath2)" fill="none" width="60" rx="4" ry="4" height="20"/>
    </g>
    <g fill="rgb(255,153,51)" text-rendering="geometricPrecision" shape-rendering="geometricPrecision" transform="matrix(1,0,0,1,-315,-181)" stroke="rgb(255,153,51)">
      <rect x="484.48" y="347" clip-path="url(#clipPath2)" width="60" rx="4" ry="4" height="20" stroke="none"/>
    </g>
    <g text-rendering="geometricPrecision" stroke-miterlimit="1.45" shape-rendering="geometricPrecision" transform="matrix(1,0,0,1,-315,-181)" stroke-linecap="butt">
      <rect x="484.48" y="347" clip-path="url(#clipPath2)" fill="none" width="60" rx="4" ry="4" height="20"/>
    </g>
    <g fill="rgb(255,153,51)" text-rendering="geometricPrecision" shape-rendering="geometricPrecision" transform="matrix(1,0,0,1,-315,-181)" stroke="rgb(255,153,51)">
      <rect x="450" y="297" clip-path="url(#clipPath2)" width="60" rx="4" ry="4" height="20" stroke="none"/>
    </g>
    <g text-rendering="geometricPrecision" stroke-miterlimit="1.45" shape-rendering="geometricPrecision" transform="matrix(1,0,0,1,-315,-181)" stroke-linecap="butt">
      <rect x="450" y="297" clip-path="url(#clipPath2)" fill="none" width="60" rx="4" ry="4" height="20"/>
    </g>
    <g fill="rgb(255,153,51)" text-rendering="geometricPrecision" shape-rendering="geometricPrecision" transform="matrix(1,0,0,1,-315,-181)" stroke="rgb(255,153,51)">
      <rect x="696.56" y="281.5" clip-path="url(#clipPath2)" width="30" rx="4" ry="4" height="10" stroke="none"/>
    </g>
    <g text-rendering="geometricPrecision" stroke-miterlimit="1.45" shape-rendering="geometricPrecision" transform="matrix(1,0,0,1,-315,-181)" stroke-linecap="butt">
      <rect x="696.56" y="281.5" clip-path="url(#clipPath2)" fill="none" width="30" rx="4" ry="4" height="10"/>
    </g>
    <g fill="rgb(255,153,51)" text-rendering="geometricPrecision" shape-rendering="geometricPrecision" transform="matrix(1,0,0,1,-315,-181)" stroke="rgb(255,153,51)">
      <rect x="716.14" y="306.5" clip-path="url(#clipPath2)" width="30" rx="4" ry="4" height="10" stroke="none"/>
    </g>
    <g text-rendering="geometricPrecision" stroke-miterlimit="1.45" shape-rendering="geometricPrecision" transform="matrix(1,0,0,1,-315,-181)" stroke-linecap="butt">
      <rect x="716.14" y="306.5" clip-path="url(#clipPath2)" fill="none" width="30" rx="4" ry="4" height="10"/>
    </g>
    <g fill="rgb(255,153,51)" text-rendering="geometricPrecision" shape-rendering="geometricPrecision" transform="matrix(1,0,0,1,-315,-181)" stroke="rgb(255,153,51)">
      <rect x="733.724" y="281.5" clip-path="url(#clipPath2)" width="30" rx="4" ry="4" height="10" stroke="none"/>
    </g>
    <g text-rendering="geometricPrecision" stroke-miterlimit="1.45" shape-rendering="geometricPrecision" transform="matrix(1,0,0,1,-315,-181)" stroke-linecap="butt">
      <rect x="733.724" y="281.5" clip-path="url(#clipPath2)" fill="none" width="30" rx="4" ry="4" height="10"/>
    </g>
    <g fill="rgb(255,153,51)" text-rendering="geometricPrecision" shape-rendering="geometricPrecision" transform="matrix(1,0,0,1,-315,-181)" stroke="rgb(255,153,51)">
      <rect x="716.14" y="256.5" clip-path="url(#clipPath2)" width="30" rx="4" ry="4" height="10" stroke="none"/>
    </g>
    <g text-rendering="geometricPrecision" stroke-miterlimit="1.45" shape-rendering="geometricPrecision" transform="matrix(1,0,0,1,-315,-181)" stroke-linecap="butt">
      <rect x="716.14" y="256.5" clip-path="url(#clipPath2)" fill="none" width="30" rx="4" ry="4" height="10"/>
    </g>
    <g fill="rgb(255,153,51)" text-rendering="geometricPrecision" shape-rendering="geometricPrecision" transform="matrix(1,0,0,1,-315,-181)" stroke="rgb(255,153,51)">
      <rect x="795.562" y="282" clip-path="url(#clipPath2)" width="30" rx="4" ry="4" height="10" stroke="none"/>
    </g>
    <g text-rendering="geometricPrecision" stroke-miterlimit="1.45" shape-rendering="geometricPrecision" transform="matrix(1,0,0,1,-315,-181)" stroke-linecap="butt">
      <rect x="795.562" y="282" clip-path="url(#clipPath2)" fill="none" width="30" rx="4" ry="4" height="10"/>
    </g>
    <g fill="rgb(255,153,51)" text-rendering="geometricPrecision" shape-rendering="geometricPrecision" transform="matrix(1,0,0,1,-315,-181)" stroke="rgb(255,153,51)">
      <rect x="815.142" y="307" clip-path="url(#clipPath2)" width="30" rx="4" ry="4" height="10" stroke="none"/>
    </g>
    <g text-rendering="geometricPrecision" stroke-miterlimit="1.45" shape-rendering="geometricPrecision" transform="matrix(1,0,0,1,-315,-181)" stroke-linecap="butt">
      <rect x="815.142" y="307" clip-path="url(#clipPath2)" fill="none" width="30" rx="4" ry="4" height="10"/>
    </g>
    <g fill="rgb(255,153,51)" text-rendering="geometricPrecision" shape-rendering="geometricPrecision" transform="matrix(1,0,0,1,-315,-181)" stroke="rgb(255,153,51)">
      <rect x="832.726" y="282" clip-path="url(#clipPath2)" width="30" rx="4" ry="4" height="10" stroke="none"/>
    </g>
    <g text-rendering="geometricPrecision" stroke-miterlimit="1.45" shape-rendering="geometricPrecision" transform="matrix(1,0,0,1,-315,-181)" stroke-linecap="butt">
      <rect x="832.726" y="282" clip-path="url(#clipPath2)" fill="none" width="30" rx="4" ry="4" height="10"/>
    </g>
    <g fill="rgb(255,153,51)" text-rendering="geometricPrecision" shape-rendering="geometricPrecision" transform="matrix(1,0,0,1,-315,-181)" stroke="rgb(255,153,51)">
      <rect x="815.142" y="257" clip-path="url(#clipPath2)" width="30" rx="4" ry="4" height="10" stroke="none"/>
    </g>
    <g text-rendering="geometricPrecision" stroke-miterlimit="1.45" shape-rendering="geometricPrecision" transform="matrix(1,0,0,1,-315,-181)" stroke-linecap="butt">
      <rect x="815.142" y="257" clip-path="url(#clipPath2)" fill="none" width="30" rx="4" ry="4" height="10"/>
    </g>
    <g fill="rgb(255,153,51)" text-rendering="geometricPrecision" shape-rendering="geometricPrecision" transform="matrix(1,0,0,1,-315,-181)" stroke="rgb(255,153,51)">
      <rect x="695.562" y="402" clip-path="url(#clipPath2)" width="30" rx="4" ry="4" height="10" stroke="none"/>
    </g>
    <g text-rendering="geometricPrecision" stroke-miterlimit="1.45" shape-rendering="geometricPrecision" transform="matrix(1,0,0,1,-315,-181)" stroke-linecap="butt">
      <rect x="695.562" y="402" clip-path="url(#clipPath2)" fill="none" width="30" rx="4" ry="4" height="10"/>
    </g>
    <g fill="rgb(255,153,51)" text-rendering="geometricPrecision" shape-rendering="geometricPrecision" transform="matrix(1,0,0,1,-315,-181)" stroke="rgb(255,153,51)">
      <rect x="715.142" y="427" clip-path="url(#clipPath2)" width="30" rx="4" ry="4" height="10" stroke="none"/>
    </g>
    <g text-rendering="geometricPrecision" stroke-miterlimit="1.45" shape-rendering="geometricPrecision" transform="matrix(1,0,0,1,-315,-181)" stroke-linecap="butt">
      <rect x="715.142" y="427" clip-path="url(#clipPath2)" fill="none" width="30" rx="4" ry="4" height="10"/>
    </g>
    <g fill="rgb(255,153,51)" text-rendering="geometricPrecision" shape-rendering="geometricPrecision" transform="matrix(1,0,0,1,-315,-181)" stroke="rgb(255,153,51)">
      <rect x="732.726" y="402" clip-path="url(#clipPath2)" width="30" rx="4" ry="4" height="10" stroke="none"/>
    </g>
    <g text-rendering="geometricPrecision" stroke-miterlimit="1.45" shape-rendering="geometricPrecision" transform="matrix(1,0,0,1,-315,-181)" stroke-linecap="butt">
      <rect x="732.726" y="402" clip-path="url(#clipPath2)" fill="none" width="30" rx="4" ry="4" height="10"/>
    </g>
    <g fill="rgb(255,153,51)" text-rendering="geometricPrecision" shape-rendering="geometricPrecision" transform="matrix(1,0,0,1,-315,-181)" stroke="rgb(255,153,51)">
      <rect x="715.142" y="377" clip-path="url(#clipPath2)" width="30" rx="4" ry="4" height="10" stroke="none"/>
    </g>
    <g text-rendering="geometricPrecision" stroke-miterlimit="1.45" shape-rendering="geometricPrecision" transform="matrix(1,0,0,1,-315,-181)" stroke-linecap="butt">
      <rect x="715.142" y="377" clip-path="url(#clipPath2)" fill="none" width="30" rx="4" ry="4" height="10"/>
    </g>
    <g fill="rgb(255,153,51)" text-rendering="geometricPrecision" shape-rendering="geometricPrecision" transform="matrix(1,0,0,1,-315,-181)" stroke="rgb(255,153,51)">
      <rect x="796.56" y="402" clip-path="url(#clipPath2)" width="30" rx="4" ry="4" height="10" stroke="none"/>
    </g>
    <g text-rendering="geometricPrecision" stroke-miterlimit="1.45" shape-rendering="geometricPrecision" transform="matrix(1,0,0,1,-315,-181)" stroke-linecap="butt">
      <rect x="796.56" y="402" clip-path="url(#clipPath2)" fill="none" width="30" rx="4" ry="4" height="10"/>
    </g>
    <g fill="rgb(255,153,51)" text-rendering="geometricPrecision" shape-rendering="geometricPrecision" transform="matrix(1,0,0,1,-315,-181)" stroke="rgb(255,153,51)">
      <rect x="816.14" y="427" clip-path="url(#clipPath2)" width="30" rx="4" ry="4" height="10" stroke="none"/>
    </g>
    <g text-rendering="geometricPrecision" stroke-miterlimit="1.45" shape-rendering="geometricPrecision" transform="matrix(1,0,0,1,-315,-181)" stroke-linecap="butt">
      <rect x="816.14" y="427" clip-path="url(#clipPath2)" fill="none" width="30" rx="4" ry="4" height="10"/>
    </g>
    <g fill="rgb(255,153,51)" text-rendering="geometricPrecision" shape-rendering="geometricPrecision" transform="matrix(1,0,0,1,-315,-181)" stroke="rgb(255,153,51)">
      <rect x="833.724" y="402" clip-path="url(#clipPath2)" width="30" rx="4" ry="4" height="10" stroke="none"/>
    </g>
    <g text-rendering="geometricPrecision" stroke-miterlimit="1.45" shape-rendering="geometricPrecision" transform="matrix(1,0,0,1,-315,-181)" stroke-linecap="butt">
      <rect x="833.724" y="402" clip-path="url(#clipPath2)" fill="none" width="30" rx="4" ry="4" height="10"/>
    </g>
    <g fill="rgb(255,153,51)" text-rendering="geometricPrecision" shape-rendering="geometricPrecision" transform="matrix(1,0,0,1,-315,-181)" stroke="rgb(255,153,51)">
      <rect x="816.14" y="377" clip-path="url(#clipPath2)" width="30" rx="4" ry="4" height="10" stroke="none"/>
    </g>
    <g text-rendering="geometricPrecision" stroke-miterlimit="1.45" shape-rendering="geometricPrecision" transform="matrix(1,0,0,1,-315,-181)" stroke-linecap="butt">
      <rect x="816.14" y="377" clip-path="url(#clipPath2)" fill="none" width="30" rx="4" ry="4" height="10"/>
      <text x="416.8672" font-size="16px" y="218.3486" clip-path="url(#clipPath2)" font-family="'Arial'" stroke="none" xml:space="preserve">Model Parallelism</text>
      <text x="721.7578" font-size="16px" y="217.3086" clip-path="url(#clipPath2)" font-family="'Arial'" stroke="none" xml:space="preserve">Data Parallelism</text>
      <path fill="none" d="M473.0222 397.0146 L456.6057 373.5221" clip-path="url(#clipPath2)"/>
      <path d="M452.0233 366.9646 L454.7985 379.6649 L457.1785 374.3418 L462.9954 373.9369 Z" clip-path="url(#clipPath2)" stroke="none"/>
      <path fill="none" d="M486.8859 397.0146 L503.0668 373.5504" clip-path="url(#clipPath2)"/>
      <path d="M507.6084 366.9646 L496.6798 374.0049 L502.4991 374.3737 L504.9121 379.6819 Z" clip-path="url(#clipPath2)" stroke="none"/>
      <path fill="none" d="M452.0378 347.0146 L468.4543 323.5221" clip-path="url(#clipPath2)"/>
      <path d="M473.0368 316.9646 L462.0647 323.9369 L467.8816 324.3418 L470.2616 329.6649 Z" clip-path="url(#clipPath2)" stroke="none"/>
      <path fill="none" d="M507.5941 347.0146 L491.4132 323.5504" clip-path="url(#clipPath2)"/>
      <path d="M486.8716 316.9646 L489.5679 329.6819 L491.9809 324.3737 L497.8002 324.0049 Z" clip-path="url(#clipPath2)" stroke="none"/>
      <path fill="none" d="M727.2202 306.4951 L717.972 294.687" clip-path="url(#clipPath2)"/>
      <path d="M715.5056 291.5379 L715.7148 301.5357 L718.5886 295.4742 L725.1621 294.1364 Z" clip-path="url(#clipPath2)" stroke="none"/>
      <path fill="none" d="M734.6602 306.4951 L742.8794 294.8096" clip-path="url(#clipPath2)"/>
      <path d="M745.1806 291.5378 L735.6705 294.6295 L742.3041 295.6275 L745.4858 301.5332 Z" clip-path="url(#clipPath2)" stroke="none"/>
      <path fill="none" d="M715.4798 281.4951 L724.728 269.687" clip-path="url(#clipPath2)"/>
      <path d="M727.1944 266.5379 L717.5379 269.1364 L724.1114 270.4742 L726.9852 276.5357 Z" clip-path="url(#clipPath2)" stroke="none"/>
      <path fill="none" d="M745.2037 281.4951 L736.9846 269.8096" clip-path="url(#clipPath2)"/>
      <path d="M734.6834 266.5378 L734.3782 276.5332 L737.5599 270.6275 L744.1935 269.6295 Z" clip-path="url(#clipPath2)" stroke="none"/>
      <path fill="none" d="M826.2222 306.9951 L816.974 295.187" clip-path="url(#clipPath2)"/>
      <path d="M814.5076 292.0378 L814.7167 302.0356 L817.5906 295.9742 L824.1641 294.6365 Z" clip-path="url(#clipPath2)" stroke="none"/>
      <path fill="none" d="M833.6622 306.9951 L841.8813 295.3096" clip-path="url(#clipPath2)"/>
      <path d="M844.1826 292.0379 L834.6725 295.1295 L841.306 296.1275 L844.4877 302.0332 Z" clip-path="url(#clipPath2)" stroke="none"/>
      <path fill="none" d="M814.4818 281.9951 L823.73 270.187" clip-path="url(#clipPath2)"/>
      <path d="M826.1964 267.0378 L816.5399 269.6365 L823.1134 270.9742 L825.9872 277.0356 Z" clip-path="url(#clipPath2)" stroke="none"/>
      <path fill="none" d="M844.2057 281.9951 L835.9866 270.3096" clip-path="url(#clipPath2)"/>
      <path d="M833.6854 267.0378 L833.3802 277.0332 L836.562 271.1275 L843.1955 270.1295 Z" clip-path="url(#clipPath2)" stroke="none"/>
      <path fill="none" d="M726.2222 426.9951 L716.974 415.187" clip-path="url(#clipPath2)"/>
      <path d="M714.5076 412.0378 L714.7167 422.0356 L717.5906 415.9742 L724.1641 414.6365 Z" clip-path="url(#clipPath2)" stroke="none"/>
      <path fill="none" d="M733.6622 426.9951 L741.8813 415.3096" clip-path="url(#clipPath2)"/>
      <path d="M744.1826 412.0379 L734.6725 415.1295 L741.306 416.1275 L744.4877 422.0332 Z" clip-path="url(#clipPath2)" stroke="none"/>
      <path fill="none" d="M714.4818 401.9951 L723.73 390.187" clip-path="url(#clipPath2)"/>
      <path d="M726.1964 387.0378 L716.5399 389.6365 L723.1134 390.9742 L725.9872 397.0356 Z" clip-path="url(#clipPath2)" stroke="none"/>
      <path fill="none" d="M744.2057 401.9951 L735.9866 390.3096" clip-path="url(#clipPath2)"/>
      <path d="M733.6854 387.0378 L733.3802 397.0332 L736.562 391.1275 L743.1955 390.1295 Z" clip-path="url(#clipPath2)" stroke="none"/>
      <path fill="none" d="M827.2202 426.9951 L817.972 415.187" clip-path="url(#clipPath2)"/>
      <path d="M815.5056 412.0379 L815.7148 422.0357 L818.5886 415.9742 L825.1621 414.6364 Z" clip-path="url(#clipPath2)" stroke="none"/>
      <path fill="none" d="M834.6602 426.9951 L842.8794 415.3096" clip-path="url(#clipPath2)"/>
      <path d="M845.1806 412.0378 L835.6705 415.1295 L842.3041 416.1275 L845.4858 422.0332 Z" clip-path="url(#clipPath2)" stroke="none"/>
      <path fill="none" d="M815.4798 401.9951 L824.728 390.187" clip-path="url(#clipPath2)"/>
      <path d="M827.1944 387.0379 L817.5379 389.6364 L824.1114 390.9742 L826.9852 397.0357 Z" clip-path="url(#clipPath2)" stroke="none"/>
      <path fill="none" d="M845.2037 401.9951 L836.9846 390.3096" clip-path="url(#clipPath2)"/>
      <path d="M834.6834 387.0378 L834.3782 397.0332 L837.5599 391.1275 L844.1935 390.1295 Z" clip-path="url(#clipPath2)" stroke="none"/>
    </g>
  </g>
</svg>
